<svg width="140" viewBox="0 0 168 398" fill="none" xmlns="http://www.w3.org/2000/svg">
<path d="M4.49988 1L0 0L0 398C52.4187 383.416 81.6993 373.432 133.996 352.5C160.237 341.563 168.219 336.857 167.995 331.5C166.551 326.027 164.065 322.583 146.496 313.5C118.429 298.47 103.814 292.081 84 275C45.0194 240.343 60.0062 191.684 93.2191 158C129.162 121.547 156.17 71.0818 101.497 34.5C95.6664 30.4699 90.2814 27.7989 80.4978 23L63.9983 16.5L53.9985 13.5L32.4991 7L9.99973 2L4.49988 1Z" fill="url(#paint0_linear_45_10)"/>
<path d="M55 346C82.3737 339.048 94.7868 336.026 110 330C128 324.5 99.0127 302.079 88.5 295C23.7253 253.514 23.2587 221.995 85 163.5C147.054 95.855 71.5168 57.4525 1 40.5L0 357C16.8179 354.433 27.2171 352.634 55 346Z" fill="url(#paint1_linear_45_10)"/>
<defs>
<linearGradient id="paint0_linear_45_10" x1="84" y1="0" x2="84" y2="398" gradientUnits="userSpaceOnUse">
<stop stop-color="#B77DE1" stop-opacity="0.38"/>
<stop offset="1" stop-color="#B77DE1"/>
</linearGradient>
<linearGradient id="paint1_linear_45_10" x1="58.75" y1="40.5" x2="58.75" y2="357" gradientUnits="userSpaceOnUse">
<stop offset="0.03125" stop-color="#9A46D2" stop-opacity="0.35"/>
<stop offset="1" stop-color="#9A46D2"/>
</linearGradient>
</defs>
</svg>
